<svg width="30" height="29" viewBox="0 0 30 29" fill="none" xmlns="http://www.w3.org/2000/svg">
<rect width="30" height="28.9706" fill="white"/>
<path fill-rule="evenodd" clip-rule="evenodd" d="M5.70711 22.2635C5.31658 22.654 5.31658 23.2871 5.70711 23.6777C6.09763 24.0682 6.7308 24.0682 7.12132 23.6777L11.4914 19.3075C11.5875 19.4251 11.6898 19.5383 11.7982 19.6466C12.6467 20.4943 13.7977 20.9706 14.9977 20.9706C15.592 20.9706 16.1804 20.8536 16.7293 20.6265C17.2783 20.3993 17.7771 20.0663 18.1973 19.6466C18.6175 19.2268 18.9508 18.7285 19.1782 18.1801C19.4056 17.6317 19.5226 17.0438 19.5226 16.4502C19.5226 15.8566 19.4056 15.2688 19.1782 14.7204C18.9508 14.1719 18.6175 13.6736 18.1973 13.2539C18.0882 13.1448 17.9737 13.0416 17.8544 12.9446L19.8267 10.9723C20.2009 11.1893 20.5618 11.4323 20.9064 11.7002C22.5963 13.0143 23.7991 14.8541 24.3241 16.9282C24.3489 17.0384 24.3955 17.1425 24.4612 17.2344C24.5269 17.3264 24.6103 17.4042 24.7065 17.4635C24.8027 17.5228 24.9099 17.5622 25.0216 17.5796C25.1333 17.5969 25.2473 17.5917 25.357 17.5644C25.4667 17.5371 25.5698 17.4881 25.6603 17.4204C25.7508 17.3527 25.8268 17.2676 25.8839 17.1701C25.941 17.0726 25.978 16.9647 25.9928 16.8527C26.0075 16.7407 25.9997 16.6269 25.9698 16.518C25.2505 13.6484 23.4547 11.2517 21.0655 9.73348L24.0919 6.70711C24.4824 6.31658 24.4824 5.68342 24.0919 5.29289C23.7014 4.90237 23.0682 4.90237 22.6777 5.29289L19.1948 8.77578C17.8912 8.25501 16.4731 7.97056 14.9977 7.97056C12.4762 7.97075 10.0269 8.81238 8.03881 10.3618C6.05069 11.9113 4.63764 14.0798 4.02398 16.5231C3.97111 16.7405 4.00644 16.9699 4.12224 17.1614C4.23805 17.3529 4.42494 17.4909 4.64217 17.5452C4.85939 17.5996 5.08932 17.5659 5.28181 17.4516C5.4743 17.3373 5.61374 17.1516 5.6697 16.935C6.19317 14.8605 7.39459 13.0198 9.08362 11.7045C10.7726 10.3893 12.8527 9.67464 14.9942 9.67386C15.9731 9.6735 16.9392 9.8223 17.8611 10.1094L15.9413 12.0293C15.6319 11.9634 15.3156 11.9299 14.9977 11.9299C13.7977 11.9299 12.6467 12.4061 11.7982 13.2539C10.9496 14.1016 10.4728 15.2514 10.4728 16.4502C10.4728 16.7711 10.507 17.0884 10.5733 17.3973L5.70711 22.2635ZM12.7005 18.0984C12.7894 18.2221 12.8887 18.3391 12.9978 18.4481C13.5283 18.978 14.2476 19.2756 14.9977 19.2756C15.7478 19.2756 16.4672 18.978 16.9976 18.4481C17.528 17.9182 17.826 17.1996 17.826 16.4502C17.826 15.7009 17.528 14.9822 16.9976 14.4523C16.8878 14.3426 16.7699 14.2429 16.6453 14.1537L12.7005 18.0984ZM14.2434 13.7271L12.2711 15.6994C12.4001 15.232 12.6486 14.8012 12.9978 14.4523C13.3464 14.1041 13.7766 13.8562 14.2434 13.7271Z" fill="#3548F5"/>
</svg>
