<svg width="30" height="29" viewBox="0 0 30 29" fill="none" xmlns="http://www.w3.org/2000/svg">
<rect width="30" height="29" fill="white"/>
<path d="M14.9977 11.9593C15.592 11.9593 16.1804 12.0762 16.7293 12.3034C17.2783 12.5306 17.7771 12.8635 18.1973 13.2833C18.6175 13.7031 18.9508 14.2014 19.1782 14.7498C19.4056 15.2982 19.5226 15.886 19.5226 16.4797C19.5226 17.0733 19.4056 17.6611 19.1782 18.2095C18.9508 18.758 18.6175 19.2563 18.1973 19.676C17.7771 20.0958 17.2783 20.4287 16.7293 20.6559C16.1804 20.8831 15.592 21 14.9977 21C13.7977 21 12.6467 20.5238 11.7982 19.676C10.9496 18.8283 10.4728 17.6785 10.4728 16.4797C10.4728 15.2808 10.9496 14.131 11.7982 13.2833C12.6467 12.4356 13.7977 11.9593 14.9977 11.9593ZM14.9977 13.6542C14.2476 13.6542 13.5283 13.9519 12.9978 14.4818C12.4674 15.0117 12.1695 15.7303 12.1695 16.4797C12.1695 17.229 12.4674 17.9477 12.9978 18.4775C13.5283 19.0074 14.2476 19.3051 14.9977 19.3051C15.7478 19.3051 16.4672 19.0074 16.9976 18.4775C17.528 17.9477 17.826 17.229 17.826 16.4797C17.826 15.7303 17.528 15.0117 16.9976 14.4818C16.4672 13.9519 15.7478 13.6542 14.9977 13.6542ZM14.9977 8C20.2165 8 24.7194 11.5593 25.9698 16.5475C25.9997 16.6564 26.0075 16.7702 25.9928 16.8821C25.978 16.9941 25.941 17.102 25.8839 17.1995C25.8268 17.297 25.7508 17.3821 25.6603 17.4498C25.5698 17.5175 25.4667 17.5665 25.357 17.5938C25.2473 17.6212 25.1333 17.6263 25.0216 17.609C24.9099 17.5917 24.8027 17.5522 24.7065 17.493C24.6103 17.4337 24.5269 17.3558 24.4612 17.2639C24.3955 17.1719 24.3489 17.0678 24.3241 16.9576C23.7991 14.8835 22.5963 13.0437 20.9064 11.7297C19.2164 10.4156 17.1358 9.70252 14.9942 9.7033C12.8527 9.70407 10.7726 10.4187 9.08362 11.734C7.39459 13.0492 6.19317 14.8899 5.6697 16.9644C5.61374 17.181 5.4743 17.3667 5.28181 17.4811C5.08932 17.5954 4.85939 17.629 4.64217 17.5747C4.42494 17.5203 4.23805 17.3823 4.12224 17.1909C4.00644 16.9994 3.97111 16.7699 4.02398 16.5525C4.63764 14.1093 6.05069 11.9407 8.03881 10.3913C10.0269 8.84182 12.4762 8.00019 14.9977 8Z" fill="#3548F5"/>
</svg>
