<svg width="30" height="28" viewBox="0 0 30 28" fill="none" xmlns="http://www.w3.org/2000/svg">
<path fill-rule="evenodd" clip-rule="evenodd" d="M3.91329 9.33336C3.91329 10.0667 4.50029 10.6667 5.21772 10.6667C5.93516 10.6667 6.52215 10.0667 6.52215 9.33336V6.66669H9.13102C9.84845 6.66669 10.4354 6.06668 10.4354 5.33335C10.4354 4.60001 9.84845 4.00001 9.13102 4.00001H6.52215V1.33334C6.52215 0.600002 5.93516 0 5.21772 0C4.50029 0 3.91329 0.600002 3.91329 1.33334V4.00001H1.30443C0.586994 4.00001 0 4.60001 0 5.33335C0 6.06668 0.586994 6.66669 1.30443 6.66669H3.91329V9.33336ZM16.9563 21.3335C19.1175 21.3335 20.8696 19.5427 20.8696 17.3335C20.8696 15.1244 19.1175 13.3335 16.9563 13.3335C14.795 13.3335 13.043 15.1244 13.043 17.3335C13.043 19.5427 14.795 21.3335 16.9563 21.3335ZM23.2568 6.66657H27.3919C28.8267 6.66657 30.0007 7.86658 30.0007 9.33325V25.3333C30.0007 26.8 28.8267 28 27.3919 28H6.52097C5.0861 28 3.91211 26.8 3.91211 25.3333V11.6266C4.30344 11.8533 4.7339 11.9999 5.21654 11.9999C6.65141 11.9999 7.8254 10.7999 7.8254 9.33325V7.99991H9.12983C10.5647 7.99991 11.7387 6.79991 11.7387 5.33324C11.7387 4.8399 11.5952 4.3999 11.3735 3.9999H19.7218C20.0828 4.00013 20.4398 4.07732 20.77 4.22655C21.1002 4.37578 21.3962 4.59376 21.6393 4.86657L23.2568 6.66657ZM10.4343 17.3333C10.4343 21.0133 13.3562 24 16.9564 24C20.5567 24 23.4786 21.0133 23.4786 17.3333C23.4786 13.6533 20.5567 10.6666 16.9564 10.6666C13.3562 10.6666 10.4343 13.6533 10.4343 17.3333Z" fill="url(#paint0_linear_528_1466)"/>
<defs>
<linearGradient id="paint0_linear_528_1466" x1="31.2508" y1="27.9999" x2="-3.25008" y2="27.9999" gradientUnits="userSpaceOnUse">
<stop stop-color="#3548F5"/>
<stop offset="1" stop-color="#F58747"/>
</linearGradient>
</defs>
</svg>
